<svg width="50" height="50" viewBox="0 0 50 50" fill="none" xmlns="http://www.w3.org/2000/svg">
<g clip-path="url(#clip0_216_1208)">
<path d="M34.5904 49.4216C28.2193 50.1896 21.7807 50.1896 15.4096 49.4216C7.63778 48.4845 1.51307 42.3598 0.576003 34.588C-0.192001 28.2169 -0.192001 21.7782 0.576003 15.4072C1.51548 7.63778 7.6402 1.51307 15.412 0.576004C21.7831 -0.192001 28.2218 -0.192001 34.5928 0.576004C42.3646 1.51307 48.4893 7.63778 49.4264 15.4096C50.1944 21.7807 50.1944 28.2193 49.4264 34.5904C48.4893 42.3622 42.3646 48.4869 34.5928 49.424L34.5904 49.4216Z" fill="#00ADE6"/>
<path d="M39.834 11H25.4158V25.4182H39.834V11Z" fill="white"/>
<path d="M25.4182 25.4158H11V39.834H25.4182V25.4158Z" fill="#00223A"/>
</g>
<defs>
<clipPath id="clip0_216_1208">
<rect width="50" height="50" fill="white"/>
</clipPath>
</defs>
</svg>
